<svg xmlns="http://www.w3.org/2000/svg" width="64" height="64" viewBox="0 0 64 64"><defs><linearGradient id="a" x1="0%" x2="100%" y1="0%" y2="100%"><stop offset="0%" stop-color="#7c3aed"/><stop offset="50%" stop-color="#8b5cf6"/><stop offset="100%" stop-color="#a78bfa"/></linearGradient></defs><g transform="translate(32 32)"><path stroke="#8b5cf6" stroke-width="1.5" d="M0-24v14m21-2L9-5m12 17L9 5M0 24V10m-21 2 12-7m-12-17 12 7" opacity=".5"/><path fill="url(#a)" d="m0-12 10 6V6L0 12l-10-6V-6z" opacity=".9"/><path fill="#c4b5fd" d="m0-6 6 6-6 6-6-6z" opacity=".9"/><circle cy="-24" r="3" fill="#8b5cf6"/><circle cx="21" cy="-12" r="3" fill="#8b5cf6"/><circle cx="21" cy="12" r="3" fill="#8b5cf6"/><circle cy="24" r="3" fill="#8b5cf6"/><circle cx="-21" cy="12" r="3" fill="#8b5cf6"/><circle cx="-21" cy="-12" r="3" fill="#8b5cf6"/><circle cy="-24" r="1.5" fill="#c4b5fd" opacity=".7"/><circle cx="21" cy="-12" r="1.5" fill="#c4b5fd" opacity=".7"/><circle cx="21" cy="12" r="1.5" fill="#c4b5fd" opacity=".7"/><circle cy="24" r="1.5" fill="#c4b5fd" opacity=".7"/><circle cx="-21" cy="12" r="1.5" fill="#c4b5fd" opacity=".7"/><circle cx="-21" cy="-12" r="1.5" fill="#c4b5fd" opacity=".7"/></g></svg>