<svg xmlns="http://www.w3.org/2000/svg" width="400" height="120" viewBox="0 0 400 120"><defs><linearGradient id="b" x1="0%" x2="100%" y1="0%" y2="100%"><stop offset="0%" stop-color="#7c3aed"/><stop offset="50%" stop-color="#8b5cf6"/><stop offset="100%" stop-color="#a78bfa"/></linearGradient><linearGradient id="a" x1="0%" x2="100%" y1="0%" y2="100%"><stop offset="0%" stop-color="#8b5cf6" stop-opacity=".6"/><stop offset="100%" stop-color="#7c3aed" stop-opacity="0"/></linearGradient></defs><g transform="translate(60 60)"><circle r="48" fill="url(#a)" opacity=".3"/><path stroke="#8b5cf6" stroke-width="1.5" d="M0-38v24m33-5L12-7m21 26L12 7M0 38V14m-33 5 21-12m-21-26 21 12" opacity=".5"/><path fill="url(#b)" d="m0-16 14 8V8L0 16l-14-8V-8z" opacity=".9"/><path fill="#c4b5fd" d="m0-8 8 8-8 8-8-8z" opacity=".9"/><circle cy="-38" r="4" fill="#8b5cf6"/><circle cx="33" cy="-19" r="4" fill="#8b5cf6"/><circle cx="33" cy="19" r="4" fill="#8b5cf6"/><circle cy="38" r="4" fill="#8b5cf6"/><circle cx="-33" cy="19" r="4" fill="#8b5cf6"/><circle cx="-33" cy="-19" r="4" fill="#8b5cf6"/><circle cy="-38" r="2" fill="#c4b5fd" opacity=".7"/><circle cx="33" cy="-19" r="2" fill="#c4b5fd" opacity=".7"/><circle cx="33" cy="19" r="2" fill="#c4b5fd" opacity=".7"/><circle cy="38" r="2" fill="#c4b5fd" opacity=".7"/><circle cx="-33" cy="19" r="2" fill="#c4b5fd" opacity=".7"/><circle cx="-33" cy="-19" r="2" fill="#c4b5fd" opacity=".7"/></g><text x="130" y="70" fill="#fff" font-family="'Inter', 'Instrument Sans', 'Work Sans', -apple-system, sans-serif" font-size="42" font-weight="600" letter-spacing="6">
    LUCKY
  </text></svg>