<svg xmlns="http://www.w3.org/2000/svg" width="1365.333" height="1365.333" viewBox="0 0 1024 1024"><path d="M578.4 255c-21.5 10.8-46.6 40.5-64.7 76.6l-5.6 11.1-18.8.6c-29.6.8-56.8 6.4-83.7 17.2l-10.9 4.4-9.1-9.6c-23.8-25.1-54.6-46.7-77.3-54.2-17.6-5.9-24.8.3-35.5 30.3-8.3 23.2-12.6 48.8-13.5 79.6-.8 28.8 1.9 54.8 7.9 77.3l2.1 7.8-2.2 10.4c-3.8 18.9-5.4 35.7-4.9 53.2l.4 16.2-11 .3c-11.1.3-11.1.3-11.1 2.8v2.5l11.7.3 11.8.3v3.7c0 2 .4 5.2.9 7 1.1 3.8 1.6 3.7-14.9 5.2-14.8 1.4-16 1.7-16 3.8 0 3.5 1.6 3.8 14.2 2.5 20.2-2 17.9-2.9 20.6 8.4 1.2 5.3 1.9 10 1.5 10.4-.5.4-3.9 1.5-7.8 2.5-8.1 2.1-9.5 2.9-9.5 5.6 0 3 2.6 3.2 10.3.8 4-1.3 7.8-2.3 8.5-2.4s2.3 3.1 3.8 7.4c9 26.5 27.2 55 48.4 75.6 77.8 75.9 213.7 97.3 319.2 50.3 12.5-5.6 25.8-12.9 36.8-20.2 22.3-14.8 45.9-39.8 62.5-66.2 11.1-17.6 23.8-45.6 29-63.7 1-3.7 2.3-5.9 3.5-6.3 3.2-1 11-10.4 14-16.8 3.8-7.9 5-14.6 5-26.4 0-10.8-1.8-19-6-27.2-3.1-6.2-9.7-13.3-14-15.1-1.9-.8-3.3-2.7-4.9-6.5-3.3-8.1-9-13.8-17.7-18.2-6.9-3.4-8.3-3.7-16.3-3.7-6.4-.1-9.7.4-12.8 1.8l-4.1 1.8-7.1-2.8c-5.1-2.1-7.1-3.4-7.1-4.7 0-1-2.1-8-4.6-15.5-5.5-16.5-14.9-36.6-23.3-49.5-6.1-9.4-6.1-9.5-8.6-23.8-4.5-25.8-9.4-43.5-17.6-64.4-10.9-27.4-29.9-58.6-45.4-74.6-9.4-9.7-15.8-11.1-26.1-5.9m13.6 13.5c1.6.8 7.1 7.1 12.2 13.9 20.2 26.9 35.9 60.7 44.7 96.1 2.9 12 7.1 34.7 7.1 39 0 1.2 1.4 4 3.1 6.1 9 11.3 20.9 35.2 27.9 56.3l4 11.6-2.3.9c-13.3 5.3-21.8 12.6-25.7 21.9-1.7 4.1-3.1 5.9-5.2 6.8-1.6.6-4.6 2.4-6.6 3.8-2 1.5-7.1 4.2-11.2 6-4.1 1.9-8.4 4.2-9.5 5.2-1.8 1.8-1.8 2-.2 3.6s1.9 1.6 6.3-.5c2.6-1.3 4.8-2.1 5.1-1.9.2.3-.5 3.3-1.6 6.8-4.6 13.9-.6 35.2 8.9 47.7 2.2 2.9 4 6 4 7 0 2.7-9.1 22.8-15.5 34.2-7.2 12.8-15.3 24.9-21.1 31.4-4.8 5.2-5.5 8.7-2.7 11.8 2.6 2.9 5.9 2.2 10.9-2.4 15.4-14.2 40.9-59.7 43.1-77 .5-4.5.4-4.8-4.2-9.5-7-7.1-10.6-15.4-11.3-25.8-.3-5.4 0-10.1.8-13 1.8-6.5 8.7-13.8 15-16.1 3.9-1.4 5.2-2.4 5.6-4.4 1.6-7.9 2.9-10.6 7.3-15 4.9-4.9 11.7-8 17.7-8 4 0 10.6 2.3 14.6 5.1l3 2.2 6-2.9c15.3-7.3 31.6-.1 36.3 16 1.3 4.5 2 5.4 5.1 6.5 5.3 1.9 10.8 7.4 13.5 13.4 3.2 7.2 4 26 1.4 33.9-2.6 7.8-6.6 13.1-12.1 15.9-4.4 2.2-4.9 2.9-6.4 8.4-12.8 44.4-41.6 90.3-73.3 116.7-29 24.1-74 42.9-121.3 50.5-15.8 2.6-68.7 2.5-85.9 0-54.9-8.2-104.5-30.6-141.4-63.7-13.4-12-30.9-34.9-39.4-51.5-2.8-5.4-12.7-29.8-12.4-30.2.1-.1 5.6-1.7 12.2-3.6 9.6-2.8 12.1-3.9 12.3-5.4.6-4.3-1.8-4.4-13.8-.8-6.3 1.9-11.6 3.2-11.9 3-.2-.3-1.4-4.2-2.6-8.9l-2.3-8.4 4.5-.6c2.5-.3 6.7-.6 9.4-.6 5.1 0 8.2-2 7.7-4.9-.4-1.8-3-2-15-.8l-7.7.8-.7-6.1-.7-6-5.6-.2c-3.1-.1 2.3-.5 11.9-.8l17.5-.5.3-2.8c.4-3 .8-2.9-18.3-3.1l-7-.1.1-22.5c.1-23.4 1-31.6 5.6-49.8l2.1-8.4-2.7-8.7c-10.3-33.6-11.4-84.3-2.6-124.6 3.5-16.2 10.6-37.1 15-44.3 2.6-4.1 5.5-4.2 15.9-.2 19.1 7.4 40 22.7 64.4 47.3l17.9 18 3.5-1.7c2-.9 3.8-1.5 4-1.2.3.2 8.9 17.5 19.3 38.4 10.3 20.9 19.3 38.3 19.9 38.7 1.4.8 4.1-1.2 4.1-3.1 0-.7-8.5-18.5-19-39.4-16-32.2-18.6-38.2-17.2-38.7.9-.3 4.9-1.9 8.8-3.4 8.5-3.3 25.3-8.3 35.5-10.4 6.6-1.5 28.1-4.5 28.6-4.1.1.1 2.7 17 5.8 37.6s5.8 38.2 6.1 39.2c.7 2.2 3.5 3.1 5 1.6 1.1-1.1.8-4.2-1.1-16.8-1.4-8.5-3.8-24.7-5.5-36s-3.3-21.8-3.6-23.3l-.6-2.8 15.2.2c11.6.1 15.5-.2 16.5-1.3.7-.7 3.1-5.6 5.4-10.9 5-11.5 14.2-27.6 23.1-40.2 11.6-16.5 34.8-37.7 41.2-37.7 1 0 3.2.7 4.8 1.5"/><path d="M574.9 317c-3.7 2-9.1 7.9-14.7 16.2-4.7 6.9-11.2 20.8-11.2 24 0 2.4.5 2.9 4.3 3.8 25.4 6.7 41.8 14.4 61.5 28.8 4.1 2.9 7.6 5.1 8 4.8 1.7-1.8-7.8-27.6-17-46.1-11.1-22.2-19.6-33.6-25.1-33.5-1.2.1-3.8.9-5.8 2m-260.3 49.3c-6.6 8.6-12.5 48.7-11.1 75.4.4 7.3 1.1 13.3 1.6 13.3.4 0 4-4.7 7.9-10.5 12.5-18.3 24.9-31.2 41.5-43 9-6.5 9-8.3-.7-17.9-11.3-11.3-26.4-20.6-33.2-20.6-2.8 0-4 .7-6 3.3m129.5 1.1c-1.1 1.3-.4 3.9 20.4 77.5 2.4 8.5 5.1 16.1 5.9 17 1.5 1.4 1.8 1.4 3.3-.1 1.5-1.6 1.3-2.8-3.1-18.5-2.7-9.2-8.3-29.4-12.7-44.8s-8.4-29-8.9-30.3c-1.1-2.5-3.2-2.9-4.9-.8m125.9 68c-19.4 13.2-25.5 18.1-25.5 20.6 0 1.9.6 2.6 2.5 2.8 1.8.2 6.3-2.5 16.5-9.9 17.1-12.3 17.5-12.7 16.8-14.7-.6-1.6-2.2-3.2-3.3-3.2-.3 0-3.4 2-7 4.4m23.5 37c-20.5 5-34.1 23.5-36.2 49.5-.5 6.2-.3 6.8 2.1 9 2.2 2.1 2.9 2.3 5.1 1.3 3-1.4 3.8-3.2 5.8-14.2 3.2-16.9 11.8-28.1 24.4-32 8.2-2.5 12-2.5 21.8 0 4.3 1.1 8.8 2 9.9 2 3.2 0 6.3-2.6 6.9-5.6.8-4.4-2.7-6.8-13-9.3-10-2.3-19.2-2.6-26.8-.7m-232.8 12.3c-1.6 1.5-.6 5.4 1.6 6.3 3.9 1.5 35.6 6.2 37.7 5.5 1.6-.5 2-1.4 1.8-3.3-.3-2.6-.5-2.7-19.3-5.8-21.6-3.7-20.9-3.6-21.8-2.7m278.8 17.6c-23.3 20.4-21.9 19-20.6 21.5.6 1.2 1.6 2.2 2.1 2.2.6 0 5.4-3.9 10.8-8.8 5.4-4.8 13.2-11.6 17.5-15.1 5.8-4.8 7.7-7 7.5-8.5-.7-4.6-4.1-2.8-17.3 8.7m-277 21.8c-6.6 2.3-16.5 8.5-23.8 14.9-5.2 4.6-6.2 8.4-2.9 11.3 3.4 3.1 7.2 2.1 14.7-4 10.2-8.2 16.3-10.8 25.5-10.8 5.9 0 8.5.5 12.3 2.3 6.6 3.3 12.6 9.5 17.7 18.3 5.5 9.4 7.8 11.9 10.7 11.9 3.3 0 6.6-3.6 5.8-6.3-1.4-5-8-16.9-12.4-22.4-12.1-15-30.8-20.9-47.6-15.2m332.9 2.1c-1.3 2.4-1.8 5.9-1.8 12.5-.1 7.8.2 9.6 2 12 4.3 5.9 11.2 6.2 14.8.8 3.2-4.9.7-16.9-5.3-25.4-3.2-4.4-7.4-4.3-9.7.1m37.3 2c-4.4 4.7-8.1 13.4-8.1 19.1-.1 4.1.3 5.2 2.7 7.3 4.9 4.2 11 2.6 14.2-3.7 1.9-3.6 3-14.3 2.1-19.2-1.4-7.2-5.9-8.7-10.9-3.5m-62.1 18.4c-2.1 2-2.2 18-.2 22.8 3.7 8.8 15.1 8.5 17.1-.5 1-4.3-2.8-13.8-7.7-19.4-4.2-4.7-6.6-5.5-9.2-2.9m84.7 6.8c-4.7 4-9.6 13.1-9.7 18.1-.1 5.8 3.1 9.5 8.4 9.5 3.8 0 6.5-2.1 9-6.9 1.8-3.4 2.5-18.2 1.1-20.9-1.6-2.9-5.2-2.8-8.8.2m-253.8 1.7c-1.6.5-7 1.9-12 3-4.9 1.1-9.8 2.7-10.7 3.6-2.4 2.2-2.3 5.5.5 8.1 3 2.8 10.5 6.2 14 6.2 2.7 0 2.7 0 2.7 7 0 10.9-3.5 16.8-11 18.7-6.7 1.8-13.2-1.3-16.6-8-1.4-2.7-4.7-3.6-5.9-1.7-1.1 1.7 1.5 8 4.8 11.7 4.2 4.8 9.9 7.3 16.7 7.3 7.3 0 12.7-2.6 17.7-8.5l4.1-4.8 5 2.1c13.4 5.8 28-.5 31.9-13.7 2.4-8.5.3-16.3-3.9-14-1.6.9-1.8 1.7-1.4 4.7 1.7 10.4-11.4 18.9-21.2 13.8-3.8-2-8.6-7.3-11.1-12.3l-2.1-4.2 3.1-2.3c3.6-2.7 7.9-9.5 7.9-12.6 0-4.3-5.8-6.2-12.5-4.1m-173.8 9.6c-.4.3-.7 1.6-.7 2.9 0 2 1.1 2.5 13.8 5.4 7.5 1.7 16.8 4.1 20.6 5.2 6.7 1.9 7 1.9 8.3.2 2.9-3.9 1.9-4.4-20.3-9.8-20.4-4.9-20.7-5-21.7-3.9m380.4 7.4c-5.6 2.9-22 18.5-23.8 22.6-.7 1.8-1.3 6.6-1.3 10.6 0 6 .4 8 2.3 10.7 4.3 6.4 6.3 7.2 18.8 7.5 6.3.2 13 .8 14.9 1.4 4.9 1.5 10.6 1.4 14-.4 8-4.1 12.4-17.9 8.6-26.9-2.4-5.9-13.4-21.4-17.1-24.2-4.9-3.7-10.7-4.2-16.4-1.3M346 590.9c-10.4.6-10.5.6-10.5 3.1v2.5l12 .3c15.1.4 16.7 0 16.3-3.6-.4-3.1-.9-3.2-17.8-2.3m5.3 20.4c-13.8 9.4-16.1 12-13 14.6 1.5 1.2 1.4 1.3 21.5-12.6 7.5-5.2 9.3-6.9 9-8.6-.2-1.2-1-2.3-2-2.5-.9-.2-7.8 3.9-15.5 9.1"/></svg>